<!--

MIT License

Copyright (c) 2020 Paweł Kuna

Permission is hereby granted, free of charge, to any person obtaining a copy
of this software and associated documentation files (the "Software"), to deal
in the Software without restriction, including without limitation the rights
to use, copy, modify, merge, publish, distribute, sublicense, and/or sell
copies of the Software, and to permit persons to whom the Software is
furnished to do so, subject to the following conditions:

The above copyright notice and this permission notice shall be included in all
copies or substantial portions of the Software.

THE SOFTWARE IS PROVIDED "AS IS", WITHOUT WARRANTY OF ANY KIND, EXPRESS OR
IMPLIED, INCLUDING BUT NOT LIMITED TO THE WARRANTIES OF MERCHANTABILITY,
FITNESS FOR A PARTICULAR PURPOSE AND NONINFRINGEMENT. IN NO EVENT SHALL THE
AUTHORS OR COPYRIGHT HOLDERS BE LIABLE FOR ANY CLAIM, DAMAGES OR OTHER
LIABILITY, WHETHER IN AN ACTION OF CONTRACT, TORT OR OTHERWISE, ARISING FROM,
OUT OF OR IN CONNECTION WITH THE SOFTWARE OR THE USE OR OTHER DEALINGS IN THE
SOFTWARE.

Source: https://github.com/tabler/tabler-icons

Generated using https://svgsprit.es/

-->
<svg width="0" height="0" class="hidden">
  <symbol xmlns="http://www.w3.org/2000/svg" fill="none" stroke="currentColor" stroke-width="2" stroke-linecap="round" stroke-linejoin="round" viewBox="0 0 24 24" id="source-code">
    <path stroke="none" d="M0 0h24v24H0z" fill="none"></path>
    <path d="M14.5 4h2.5a3 3 0 0 1 3 3v10a3 3 0 0 1 -3 3h-10a3 3 0 0 1 -3 -3v-5"></path>
    <path d="M6 5l-2 2l2 2"></path>
    <path d="M10 9l2 -2l-2 -2"></path>
  </symbol>
  <symbol xmlns="http://www.w3.org/2000/svg" fill="currentColor" viewBox="0 0 24 24" id="caret-right">
    <path stroke="none" d="M0 0h24v24H0z" fill="none"></path>
    <path d="M9 6c0 -.852 .986 -1.297 1.623 -.783l.084 .076l6 6a1 1 0 0 1 .083 1.32l-.083 .094l-6 6l-.094 .083l-.077 .054l-.096 .054l-.036 .017l-.067 .027l-.108 .032l-.053 .01l-.06 .01l-.057 .004l-.059 .002l-.059 -.002l-.058 -.005l-.06 -.009l-.052 -.01l-.108 -.032l-.067 -.027l-.132 -.07l-.09 -.065l-.081 -.073l-.083 -.094l-.054 -.077l-.054 -.096l-.017 -.036l-.027 -.067l-.032 -.108l-.01 -.053l-.01 -.06l-.004 -.057l-.002 -12.059z"></path>
  </symbol>
  <symbol xmlns="http://www.w3.org/2000/svg" fill="none" stroke="currentColor" stroke-width="2" stroke-linecap="round" stroke-linejoin="round" viewBox="0 0 24 24" id="loader">
    <path stroke="none" d="M0 0h24v24H0z" fill="none"></path>
    <path d="M12 6l0 -3"></path>
    <path d="M16.25 7.75l2.15 -2.15"></path>
    <path d="M18 12l3 0"></path>
    <path d="M16.25 16.25l2.15 2.15"></path>
    <path d="M12 18l0 3"></path>
    <path d="M7.75 16.25l-2.15 2.15"></path>
    <path d="M6 12l-3 0"></path>
    <path d="M7.75 7.75l-2.15 -2.15"></path>
  </symbol>
  <symbol xmlns="http://www.w3.org/2000/svg" fill="none" stroke="currentColor" stroke-width="2" stroke-linecap="round" stroke-linejoin="round" viewBox="0 0 24 24" id="external-link">
    <path stroke="none" d="M0 0h24v24H0z" fill="none"></path>
    <path d="M12 6h-6a2 2 0 0 0 -2 2v10a2 2 0 0 0 2 2h10a2 2 0 0 0 2 -2v-6"></path>
    <path d="M11 13l9 -9"></path>
    <path d="M15 4h5v5"></path>
  </symbol>
  <symbol xmlns="http://www.w3.org/2000/svg" fill="none" stroke="currentColor" stroke-width="2" stroke-linecap="round" stroke-linejoin="round" viewBox="0 0 24 24" id="copy">
    <path stroke="none" d="M0 0h24v24H0z" fill="none"></path>
    <path d="M7 7m0 2.667a2.667 2.667 0 0 1 2.667 -2.667h8.666a2.667 2.667 0 0 1 2.667 2.667v8.666a2.667 2.667 0 0 1 -2.667 2.667h-8.666a2.667 2.667 0 0 1 -2.667 -2.667z"></path>
    <path d="M4.012 16.737a2.005 2.005 0 0 1 -1.012 -1.737v-10c0 -1.1 .9 -2 2 -2h10c.75 0 1.158 .385 1.5 1"></path>
  </symbol>
  <symbol xmlns="http://www.w3.org/2000/svg" fill="none" stroke="currentColor" stroke-width="2" stroke-linecap="round" stroke-linejoin="round" viewBox="0 0 24 24" id="file-description">
    <path stroke="none" d="M0 0h24v24H0z" fill="none"></path>
    <path d="M14 3v4a1 1 0 0 0 1 1h4"></path>
    <path d="M17 21h-10a2 2 0 0 1 -2 -2v-14a2 2 0 0 1 2 -2h7l5 5v11a2 2 0 0 1 -2 2z"></path>
    <path d="M9 17h6"></path>
    <path d="M9 13h6"></path>
  </symbol>
</svg>
